<svg id="visual" viewBox="0 0 900 300" width="900" height="300" xmlns="http://www.w3.org/2000/svg" xmlns:xlink="http://www.w3.org/1999/xlink" version="1.1"><rect x="0" y="0" width="900" height="300" fill="#001220"></rect><path d="M0 121L21.5 121.3C43 121.7 86 122.3 128.8 117C171.7 111.7 214.3 100.3 257.2 95.8C300 91.3 343 93.7 385.8 95.3C428.7 97 471.3 98 514.2 94.3C557 90.7 600 82.3 642.8 83.3C685.7 84.3 728.3 94.7 771.2 102.8C814 111 857 117 878.5 120L900 123L900 0L878.5 0C857 0 814 0 771.2 0C728.3 0 685.7 0 642.8 0C600 0 557 0 514.2 0C471.3 0 428.7 0 385.8 0C343 0 300 0 257.2 0C214.3 0 171.7 0 128.8 0C86 0 43 0 21.5 0L0 0Z" fill="#0f0f10"></path><path d="M0 83L21.5 85.7C43 88.3 86 93.7 128.8 91C171.7 88.3 214.3 77.7 257.2 73.5C300 69.3 343 71.7 385.8 76.3C428.7 81 471.3 88 514.2 86.8C557 85.7 600 76.3 642.8 70.7C685.7 65 728.3 63 771.2 68.5C814 74 857 87 878.5 93.5L900 100L900 0L878.5 0C857 0 814 0 771.2 0C728.3 0 685.7 0 642.8 0C600 0 557 0 514.2 0C471.3 0 428.7 0 385.8 0C343 0 300 0 257.2 0C214.3 0 171.7 0 128.8 0C86 0 43 0 21.5 0L0 0Z" fill="#25394a"></path><path d="M0 57L21.5 55.8C43 54.7 86 52.3 128.8 55.2C171.7 58 214.3 66 257.2 66.8C300 67.7 343 61.3 385.8 58.3C428.7 55.3 471.3 55.7 514.2 55.7C557 55.7 600 55.3 642.8 53.3C685.7 51.3 728.3 47.7 771.2 49.7C814 51.7 857 59.3 878.5 63.2L900 67L900 0L878.5 0C857 0 814 0 771.2 0C728.3 0 685.7 0 642.8 0C600 0 557 0 514.2 0C471.3 0 428.7 0 385.8 0C343 0 300 0 257.2 0C214.3 0 171.7 0 128.8 0C86 0 43 0 21.5 0L0 0Z" fill="#006b83"></path><path d="M0 33L21.5 33.8C43 34.7 86 36.3 128.8 37.3C171.7 38.3 214.3 38.7 257.2 41.8C300 45 343 51 385.8 50.2C428.7 49.3 471.3 41.7 514.2 38.8C557 36 600 38 642.8 37C685.7 36 728.3 32 771.2 31.2C814 30.3 857 32.7 878.5 33.8L900 35L900 0L878.5 0C857 0 814 0 771.2 0C728.3 0 685.7 0 642.8 0C600 0 557 0 514.2 0C471.3 0 428.7 0 385.8 0C343 0 300 0 257.2 0C214.3 0 171.7 0 128.8 0C86 0 43 0 21.5 0L0 0Z" fill="#00a18f"></path><path d="M0 28L21.5 26.5C43 25 86 22 128.8 19.5C171.7 17 214.3 15 257.2 15C300 15 343 17 385.8 20.2C428.7 23.3 471.3 27.7 514.2 28.3C557 29 600 26 642.8 24.3C685.7 22.7 728.3 22.3 771.2 24C814 25.7 857 29.3 878.5 31.2L900 33L900 0L878.5 0C857 0 814 0 771.2 0C728.3 0 685.7 0 642.8 0C600 0 557 0 514.2 0C471.3 0 428.7 0 385.8 0C343 0 300 0 257.2 0C214.3 0 171.7 0 128.8 0C86 0 43 0 21.5 0L0 0Z" fill="#32cd32"></path></svg>